<?xml version="1.0" encoding="utf-8"?>
<!-- Generator: Adobe Illustrator 21.1.0, SVG Export Plug-In . SVG Version: 6.00 Build 0)  -->
<svg version="1.1" xmlns="http://www.w3.org/2000/svg" xmlns:xlink="http://www.w3.org/1999/xlink" x="0px" y="0px"
	 viewBox="0 0 500 500" style="enable-background:new 0 0 500 500;" xml:space="preserve">
<style type="text/css">
	.st0{display:none;}
	.st1{display:inline;}
	.st2{fill:#8C8152;}
	.st3{fill:#9A8CCC;}
	.st4{fill:#FFFFFF;}
	.st5{fill:#4D4D4D;}
</style>
<g id="Layer_5">
</g>
<g id="Layer_1" class="st0">
	<g class="st1">
		<path class="st2" d="M420.8,496.3V427h-69.3v-68.6h-69.3v-69.3h-61.6v69.3h-69.3V427H82v69.3H6.4v-75.6h69.3v-69.3h68.6v-69.3
			h69.3v-61.6h-69.3v-69.3H75.7V81.9H6.4V6.3H82v69.3h69.3v68.6h69.3v69.3h61.6v-69.3h69.3V75.6h69.3V6.3h75.6v75.6h-69.3v69.3
			h-68.6v69.3h-69.3v61.6h69.3v69.3h68.6v69.3h69.3v75.6H420.8z"/>
	</g>
</g>
<g id="Layer_2" class="st0">
	<g class="st1">
		<path class="st3" d="M321.5,356.4V425H178.7v-68.6h-68.6V143.6h68.6V75h142.8v68.6h68.6v212.8H321.5z M315.2,150.6H185v198.8
			h130.2V150.6z"/>
	</g>
</g>
<g id="Layer_3" class="st0">
</g>
<g id="Layer_4">
	<g>
		<circle class="st4" cx="255" cy="255" r="234"/>
		<g>
			<path class="st5" d="M71.5,235.9v-44.3h14c4.2,0,7.6,1.1,10.1,3.4c2.5,2.3,3.8,5.3,3.8,9.2c0,2.6-0.6,4.9-1.9,6.8
				c-1.3,2-3.1,3.4-5.3,4.3c-2.2,0.9-5.4,1.3-9.6,1.3h-4.7v19.2H71.5z M84.4,197.3h-6.6v13.8h6.9c2.6,0,4.6-0.6,6-1.8
				c1.4-1.2,2.1-3,2.1-5.2C92.8,199.5,90,197.3,84.4,197.3z"/>
			<path class="st5" d="M105.1,235.9v-44.3h11.1c4.5,0,8,1.1,10.7,3.3c2.6,2.2,3.9,5.2,3.9,9c0,2.6-0.6,4.8-1.9,6.7
				c-1.3,1.9-3.1,3.3-5.5,4.2c1.4,0.9,2.8,2.2,4.1,3.8c1.4,1.6,3.3,4.4,5.7,8.4c1.5,2.5,2.8,4.4,3.7,5.7l2.3,3.2h-7.5l-1.9-2.9
				c-0.1-0.1-0.2-0.3-0.4-0.5l-1.2-1.7l-2-3.2l-2.1-3.5c-1.3-1.8-2.5-3.3-3.6-4.3c-1.1-1.1-2.1-1.9-2.9-2.3s-2.4-0.7-4.4-0.7h-1.6
				v19.3H105.1z M113.3,197.1h-1.9v14h2.4c3.2,0,5.4-0.3,6.6-0.8c1.2-0.5,2.1-1.4,2.8-2.5c0.7-1.1,1-2.4,1-3.8
				c0-1.4-0.4-2.7-1.1-3.8c-0.7-1.1-1.8-1.9-3.1-2.4C118.7,197.3,116.4,197.1,113.3,197.1z"/>
			<path class="st5" d="M144.1,191.7h25.1v5.6h-18.8v13.5h18.1v5.7h-18.1v13.7h19.4v5.6h-25.7V191.7z"/>
			<path class="st5" d="M187.5,217.4l-4.8-2.9c-3-1.8-5.2-3.7-6.4-5.4s-1.9-3.8-1.9-6.2c0-3.5,1.2-6.3,3.6-8.5
				c2.4-2.2,5.6-3.3,9.4-3.3c3.7,0,7.1,1,10.2,3.1v7.2c-3.2-3.1-6.6-4.6-10.3-4.6c-2.1,0-3.8,0.5-5.1,1.4c-1.3,1-2,2.2-2,3.7
				c0,1.3,0.5,2.6,1.5,3.7c1,1.2,2.6,2.4,4.7,3.6l4.8,2.9c5.4,3.2,8.1,7.3,8.1,12.3c0,3.5-1.2,6.4-3.6,8.6c-2.4,2.2-5.5,3.3-9.3,3.3
				c-4.4,0-8.4-1.3-11.9-4v-8c3.4,4.3,7.4,6.5,11.9,6.5c2,0,3.6-0.6,5-1.7c1.3-1.1,2-2.5,2-4.2C193.3,222.4,191.4,219.8,187.5,217.4
				z"/>
			<path class="st5" d="M217.2,217.4l-4.8-2.9c-3-1.8-5.2-3.7-6.4-5.4s-1.9-3.8-1.9-6.2c0-3.5,1.2-6.3,3.6-8.5
				c2.4-2.2,5.6-3.3,9.4-3.3c3.7,0,7.1,1,10.2,3.1v7.2c-3.2-3.1-6.6-4.6-10.3-4.6c-2.1,0-3.8,0.5-5.1,1.4c-1.3,1-2,2.2-2,3.7
				c0,1.3,0.5,2.6,1.5,3.7c1,1.2,2.6,2.4,4.7,3.6l4.8,2.9c5.4,3.2,8.1,7.3,8.1,12.3c0,3.5-1.2,6.4-3.6,8.6c-2.4,2.2-5.5,3.3-9.3,3.3
				c-4.4,0-8.4-1.3-11.9-4v-8c3.4,4.3,7.4,6.5,11.9,6.5c2,0,3.6-0.6,5-1.7c1.3-1.1,2-2.5,2-4.2C223.1,222.4,221.1,219.8,217.2,217.4
				z"/>
			<path class="st5" d="M254,191.7h25.1v5.6h-18.8v13.5h18.1v5.7h-18.1v13.7h19.4v5.6H254V191.7z"/>
			<path class="st5" d="M321.6,191.7h6v44.3h-5.4l-29.6-34.1v34.1h-6v-44.3h5.1l29.8,34.4V191.7z"/>
			<path class="st5" d="M333.3,191.6h37v5.6h-15.4v38.7h-6.4v-38.7h-15.2V191.6z"/>
			<path class="st5" d="M376.3,191.7h25.1v5.6h-18.8v13.5h18.1v5.7h-18.1v13.7H402v5.6h-25.7V191.7z"/>
			<path class="st5" d="M408.9,235.9v-44.3H420c4.5,0,8,1.1,10.7,3.3c2.6,2.2,3.9,5.2,3.9,9c0,2.6-0.6,4.8-1.9,6.7
				c-1.3,1.9-3.1,3.3-5.5,4.2c1.4,0.9,2.8,2.2,4.2,3.8c1.4,1.6,3.3,4.4,5.7,8.4c1.5,2.5,2.8,4.4,3.7,5.7l2.3,3.2h-7.5l-1.9-2.9
				c-0.1-0.1-0.2-0.3-0.4-0.5l-1.2-1.7l-2-3.2l-2.1-3.5c-1.3-1.8-2.5-3.3-3.6-4.3c-1.1-1.1-2.1-1.9-2.9-2.3
				c-0.9-0.5-2.4-0.7-4.4-0.7h-1.6v19.3H408.9z M417.2,197.1h-1.9v14h2.4c3.2,0,5.4-0.3,6.6-0.8c1.2-0.5,2.1-1.4,2.8-2.5
				c0.7-1.1,1-2.4,1-3.8c0-1.4-0.4-2.7-1.1-3.8c-0.7-1.1-1.8-1.9-3.1-2.4C422.5,197.3,420.3,197.1,417.2,197.1z"/>
			<path class="st5" d="M97.1,269.5h37v5.6h-15.4v38.7h-6.4v-38.7H97.1V269.5z"/>
			<path class="st5" d="M157.6,268.9c6.8,0,12.5,2.2,17.1,6.5c4.5,4.3,6.8,9.8,6.8,16.3s-2.3,11.9-6.9,16.2
				c-4.6,4.3-10.4,6.4-17.4,6.4c-6.7,0-12.2-2.1-16.7-6.4c-4.4-4.3-6.7-9.6-6.7-16.1c0-6.6,2.2-12.1,6.7-16.4
				S150.8,268.9,157.6,268.9z M157.9,274.9c-5.1,0-9.2,1.6-12.5,4.8c-3.3,3.2-4.9,7.2-4.9,12.1c0,4.8,1.6,8.7,4.9,11.9
				c3.3,3.2,7.4,4.8,12.3,4.8c4.9,0,9.1-1.6,12.4-4.8c3.3-3.2,5-7.3,5-12.1c0-4.7-1.7-8.6-5-11.8
				C166.7,276.5,162.7,274.9,157.9,274.9z"/>
			<path class="st5" d="M218.3,295.3l-4.8-2.9c-3-1.8-5.2-3.7-6.4-5.4c-1.3-1.8-1.9-3.8-1.9-6.2c0-3.5,1.2-6.3,3.6-8.5
				c2.4-2.2,5.6-3.3,9.4-3.3c3.7,0,7.1,1,10.2,3.1v7.2c-3.2-3.1-6.6-4.6-10.3-4.6c-2.1,0-3.8,0.5-5.1,1.4s-2,2.2-2,3.7
				c0,1.3,0.5,2.6,1.5,3.7c1,1.2,2.6,2.4,4.7,3.6l4.8,2.9c5.4,3.2,8.1,7.3,8.1,12.3c0,3.5-1.2,6.4-3.6,8.6s-5.5,3.3-9.3,3.3
				c-4.4,0-8.4-1.3-11.9-4v-8c3.4,4.3,7.4,6.5,11.9,6.5c2,0,3.6-0.6,5-1.7c1.3-1.1,2-2.5,2-4.2C224.1,300.2,222.2,297.7,218.3,295.3
				z"/>
			<path class="st5" d="M237,269.5h25.1v5.6h-18.8v13.5h18.1v5.7h-18.1v13.7h19.4v5.6H237V269.5z"/>
			<path class="st5" d="M269.5,269.5h6.3V308h19.9v5.8h-26.3V269.5z"/>
			<path class="st5" d="M301.3,269.5h25.1v5.6h-18.8v13.5h18.1v5.7h-18.1v13.7H327v5.6h-25.7V269.5z"/>
			<path class="st5" d="M371.9,303.5v7c-4.6,2.5-10,3.8-16.1,3.8c-4.9,0-9.1-1-12.6-3s-6.2-4.7-8.2-8.2c-2-3.5-3-7.3-3-11.3
				c0-6.4,2.3-11.9,6.9-16.3c4.6-4.4,10.3-6.6,17-6.6c4.6,0,9.8,1.2,15.5,3.6v6.8c-5.2-3-10.2-4.4-15.2-4.4c-5.1,0-9.3,1.6-12.6,4.8
				c-3.3,3.2-5,7.2-5,12c0,4.9,1.6,8.8,4.9,12c3.3,3.1,7.5,4.7,12.6,4.7C361.5,308.5,366.8,306.8,371.9,303.5z"/>
			<path class="st5" d="M375.9,269.5h37v5.6h-15.4v38.7h-6.4v-38.7h-15.2V269.5z"/>
		</g>
	</g>
	<g>
	</g>
	<g>
	</g>
	<g>
	</g>
	<g>
	</g>
	<g>
	</g>
	<g>
	</g>
	<g>
	</g>
	<g>
	</g>
	<g>
	</g>
	<g>
	</g>
	<g>
	</g>
	<g>
	</g>
	<g>
	</g>
	<g>
	</g>
	<g>
	</g>
</g>
</svg>
